<svg xmlns="http://www.w3.org/2000/svg" width="84.5" height="41.75" viewBox="0 0 338 167">
  <defs>
    <style>
      .cls-1 {
        fill-rule: evenodd;
      }
    </style>
  </defs>
  <path id="tumbas" class="cls-1" d="M33.752,56.391H22.918V42.967L10.549,46.707v9.684H2.207V68.28h8.342V88.223q0,9.877,5.226,13.711t17.978,2.4V93.113a53.448,53.448,0,0,1-5.945.048,5.718,5.718,0,0,1-3.643-1.294,4.739,4.739,0,0,1-1.246-3.644V68.28H33.752V56.391ZM74.885,82.279q0,5.946-2.877,8.917a10.182,10.182,0,0,1-7.671,2.972,9.427,9.427,0,0,1-6.9-2.541q-2.589-2.539-2.589-7.335v-27.9H42.477V85.826q0,9.3,5.13,14.574A17.352,17.352,0,0,0,60.6,105.674q9.78,0,14.286-6.712v5.369H87.254V56.391H74.885V82.279ZM137.3,61.952q-4.219-6.9-13.04-6.9-9.013,0-13.327,6.424V56.391H98.567v47.94h12.369V77.389q0-5.272,2.445-8.054a8.308,8.308,0,0,1,6.568-2.781,7.5,7.5,0,0,1,5.944,2.4A9.826,9.826,0,0,1,128,75.663v28.668h12.369V77.389q0-5.272,2.349-8.054a8.128,8.128,0,0,1,6.568-2.781,7.506,7.506,0,0,1,5.944,2.4,9.831,9.831,0,0,1,2.11,6.712v28.668h12.368V74.8q0-9.011-4.938-14.382T151.59,55.048q-9.492,0-14.287,6.9h0Zm55.323,0.1V37.214H180.257v67.117h12.369V98.674q5.465,7,15.533,7A21.826,21.826,0,0,0,224.7,98.339a25.349,25.349,0,0,0,6.856-17.978A25.349,25.349,0,0,0,224.7,62.383a21.826,21.826,0,0,0-16.539-7.335q-10.068,0-15.533,7h0Zm0,18.313a13.267,13.267,0,0,1,3.739-9.732,12.778,12.778,0,0,1,9.493-3.787,12.938,12.938,0,0,1,9.54,3.787,13.18,13.18,0,0,1,3.787,9.732,13.175,13.175,0,0,1-3.787,9.732,12.932,12.932,0,0,1-9.54,3.787,12.772,12.772,0,0,1-9.493-3.787A13.262,13.262,0,0,1,192.626,80.361Zm84.087-18.313q-5.562-7-15.629-7a21.72,21.72,0,0,0-16.443,7.335,25.345,25.345,0,0,0-6.856,17.978,25.345,25.345,0,0,0,6.856,17.978,21.719,21.719,0,0,0,16.443,7.335q10.068,0,15.629-7v5.657h12.369V56.391H276.713v5.657ZM250.154,80.361a13.267,13.267,0,0,1,3.739-9.732,12.778,12.778,0,0,1,9.493-3.787,12.938,12.938,0,0,1,9.54,3.787,13.18,13.18,0,0,1,3.787,9.732,13.175,13.175,0,0,1-3.787,9.732,12.932,12.932,0,0,1-9.54,3.787,12.772,12.772,0,0,1-9.493-3.787A13.262,13.262,0,0,1,250.154,80.361Zm62.754-13.232a7.026,7.026,0,0,1,3.979-1.055,7.889,7.889,0,0,1,7.67,4.89L335.1,65.212a19.283,19.283,0,0,0-7.574-7.527,21.726,21.726,0,0,0-10.643-2.637A20.486,20.486,0,0,0,303.9,59.123a13.391,13.391,0,0,0-5.226,11.17,11.958,11.958,0,0,0,2.541,7.814,14.946,14.946,0,0,0,6.185,4.554,64.328,64.328,0,0,0,7.287,2.4,36.389,36.389,0,0,1,6.184,2.157q2.54,1.2,2.541,3.116,0,4.124-6.616,4.123-7.288,0-9.4-6.232l-10.739,6.041q5.368,11.411,20.135,11.41,8.246,0,13.759-3.979t5.513-11.362a12.863,12.863,0,0,0-2.541-8.15,14.161,14.161,0,0,0-6.184-4.65,64.431,64.431,0,0,0-7.287-2.3,33.719,33.719,0,0,1-6.184-2.109q-2.542-1.2-2.541-3.116A3.289,3.289,0,0,1,312.908,67.129Z"/>
</svg>
